<?xml version="1.0" encoding="UTF-8"?>
<svg xmlns="http://www.w3.org/2000/svg" width="280" height="240" viewBox="0 0 280 240" fill="none">
  <rect width="280" height="240" fill="#076D70"></rect>
  <path d="M34.7462 33.698V81.858H43.8896V62.8732H50.2412C55.0572 62.8732 59.245 61.6866 62.3161 59.1041C65.4569 56.5216 67.3415 53.0318 67.3415 48.146C67.3415 43.2602 65.4569 39.8401 62.3161 37.2576C59.245 34.6751 55.0572 33.698 50.2412 33.698H34.7462ZM49.1244 55.7539H43.8198V40.8173H48.915C51.7069 40.8173 53.5914 41.3059 55.127 42.4226C56.6625 43.5394 57.9887 45.4937 57.9887 48.146C57.9887 50.8681 56.8719 52.8224 55.3364 53.9391C53.8008 55.0559 51.9163 55.7539 49.1244 55.7539Z" fill="white"></path>
  <path d="M95.7369 82.6955C109.696 82.6955 120.934 73.3427 120.934 57.8478C120.934 42.3528 109.696 33 95.7369 33C81.8473 33 70.5401 42.3528 70.5401 57.8478C70.5401 73.3427 81.8473 82.6955 95.7369 82.6955ZM111.581 57.778C111.581 68.2475 104.671 74.7387 95.7369 74.7387C86.8727 74.7387 79.8929 68.2475 79.8929 57.778C79.8929 47.3084 86.8029 40.8871 95.7369 40.8871C104.671 40.8871 111.581 47.3084 111.581 57.778Z" fill="white"></path>
  <path d="M141.462 62.3148L152.839 81.858H163.448L150.465 61.198C156.328 59.3833 160.865 56.033 160.865 47.7272C160.865 43.1206 158.701 39.4213 155.7 37.118C152.699 34.8147 148.651 33.698 143.556 33.698H128.061V81.858H137.134V62.3148H141.462ZM141.811 55.1955H137.064V40.8173H141.811C144.742 40.8173 146.976 41.0267 148.721 42.3528C150.535 43.6092 151.512 45.3541 151.512 48.0064C151.512 50.7285 150.535 52.3338 148.721 53.6599C146.976 54.9861 144.742 55.1955 141.811 55.1955Z" fill="white"></path>
  <path d="M176.731 41.0267V81.858H185.735V41.0267H198.926V33.698H163.47V41.0267H176.731Z" fill="white"></path>
  <path d="M223.607 82.6955C237.567 82.6955 248.804 73.3427 248.804 57.8478C248.804 42.3528 237.567 33 223.607 33C209.718 33 198.411 42.3528 198.411 57.8478C198.411 73.3427 209.718 82.6955 223.607 82.6955ZM239.451 57.778C239.451 68.2475 232.541 74.7387 223.607 74.7387C214.743 74.7387 207.763 68.2475 207.763 57.778C207.763 47.3084 214.673 40.8871 223.607 40.8871C232.541 40.8871 239.451 47.3084 239.451 57.778Z" fill="white"></path>
  <path d="M56.3834 117.265L48.3567 113.985C45.844 112.938 42.8427 111.612 42.8427 108.122C42.8427 104.562 45.9836 102.608 49.962 102.608C54.0801 102.608 57.7793 104.632 60.8504 107.424L65.1778 100.933C62.3161 98.0013 57.3605 95.1396 50.5204 95.1396C40.3998 95.1396 33.8389 100.933 33.8389 109.308C33.8389 115.171 37.3287 118.871 42.5635 120.965L50.1016 123.966C54.2196 125.641 56.7323 126.897 56.7323 130.666C56.7323 134.854 53.6613 137.018 49.1943 137.018C44.6574 137.018 40.1206 134.784 36.3516 130.666L32.0242 137.227C35.165 140.857 40.8186 144.696 49.0547 144.696C59.245 144.696 65.806 138.763 65.806 129.829C65.806 123.826 63.1537 120.057 56.3834 117.265Z" fill="white"></path>
  <path d="M99.2448 132.76L103.433 143.858H113.344L94.4288 95.6282H85.6343L66.7193 143.858H76.1419L80.3298 132.76H99.2448ZM82.5633 125.501L89.8222 106.028L97.0113 125.501H82.5633Z" fill="white"></path>
  <path d="M126.119 108.331L150.548 143.858H159.692V95.698H150.828V119.429C150.828 125.152 150.967 130.806 150.967 130.806L127.027 95.698H117.395V143.858H126.259V120.197C126.259 114.473 126.119 108.331 126.119 108.331Z" fill="white"></path>
  <path d="M177.568 103.027V143.858H186.572V103.027H199.764V95.698H164.307V103.027H177.568Z" fill="white"></path>
  <path d="M223.746 144.696C237.706 144.696 248.943 135.343 248.943 119.848C248.943 104.353 237.706 95 223.746 95C209.857 95 198.55 104.353 198.55 119.848C198.55 135.343 209.857 144.696 223.746 144.696ZM239.59 119.778C239.59 130.248 232.68 136.739 223.746 136.739C214.882 136.739 207.902 130.248 207.902 119.778C207.902 109.308 214.812 102.887 223.746 102.887C232.68 102.887 239.59 109.308 239.59 119.778Z" fill="white"></path>
  <path d="M34.5837 205.858H39.8185V157.698H34.5837V205.858Z" fill="white"></path>
  <path d="M51.3596 194.69L47.7999 198.111C50.2428 201.81 55.4776 206.696 62.8063 206.696C72.1591 206.696 78.7898 201.391 78.7898 192.876C78.7898 185.966 74.1134 182.616 68.2505 180.103L61.6896 177.311C58.4789 175.985 54.989 174.1 54.989 169.075C54.989 164.329 59.0373 161.607 64.2022 161.607C69.2974 161.607 72.5081 164.329 74.602 166.772L77.6731 163.282C76.8355 162.235 72.5081 157.07 64.4814 157.07C57.0829 157.07 49.6844 161.327 49.6844 169.424C49.6844 175.287 52.4065 178.847 57.7809 181.15L64.9002 184.221C69.3672 186.175 73.4155 188.618 73.4155 193.644C73.4155 199.088 69.2276 202.159 63.4345 202.159C58.2695 202.159 53.4535 197.901 51.3596 194.69Z" fill="white"></path>
  <path d="M86.5597 205.858H108.825V201.182H91.7945V157.698H86.5597V205.858Z" fill="white"></path>
  <path d="M147.976 205.858H153.908L133.807 157.558H129.828L109.797 205.858H115.241L120.615 192.387H142.601L147.976 205.858ZM140.787 187.781H122.43L131.643 164.678L140.787 187.781Z" fill="white"></path>
  <path d="M194.157 205.858H199.182V157.698H194.017V197.413L164.493 157.698H159.049V205.858H164.284V182.546C164.284 175.845 164.214 169.075 164.214 165.585L194.157 205.858Z" fill="white"></path>
  <path d="M209.744 205.858H223.634C237.733 205.858 248.901 196.366 248.901 181.848C248.901 166.981 238.152 157.698 223.634 157.698H209.744V205.858ZM223.494 201.251H214.979V162.305H223.494C235.43 162.305 243.456 169.633 243.456 181.778C243.456 193.574 235.011 201.251 223.494 201.251Z" fill="white"></path>
</svg>
